#!OML:ASF H:\IndianDance\Patient Classification 1\Patient 1\Session 1\dancer.ASF
:FULLY-SPECIFIED
:DEGREES
2200
root -21.4016 15.588 6.25104 -168.166 30.5523 -174.447
lowerback 0.627786 2.02921 -1.59255
upperback 0.0800742 2.70789 1.26166
thorax -0.404311 1.36188 2.15493
lowerneck -18.8549 -1.32087 0.680452
upperneck 37.7158 -1.56969 5.42756
head 16.9404 1.18932 2.29235
rclavicle -4.70623e-014 -1.86858e-014
rhumerus -43.1321 -20.8121 -75.392
rradius 28.9327
rwrist 4.32827
rhand -20.7025 8.39882
rfingers 7.12502
rthumb 5.66157 -21.5055
lclavicle -4.70623e-014 -1.86858e-014
lhumerus -34.0445 -9.95851 83.0212
lradius 27.4165
lwrist 5.65494
lhand -27.9884 -1064.98
lfingers 7.12502
lthumb -1.37474 44.9974
rfemur -24.5261 -7.7067 27.7333
rtibia 33.0632
rfoot -9.17474 -13.3234
rtoes 5.43951
lfemur -6.00131 6.43957 0.597877
ltibia 32.5469
lfoot -4.07003 36.1947
ltoes 38.5065
2201
root -21.3153 15.5867 6.24414 -168.219 31.1741 -174.376
lowerback 0.730209 2.08225 -1.51459
upperback 0.154544 2.77769 1.22275
thorax -0.383208 1.3957 2.06818
lowerneck -18.8396 -1.34842 0.668247
upperneck 37.7233 -1.65605 5.53181
head 16.9469 1.16526 2.3245
rclavicle -1.23445e-013 -6.36111e-015
rhumerus -42.5532 -20.0979 -76.3155
rradius 29.8438
rwrist 3.42686
rhand -21.0955 8.38388
rfingers 7.12502
rthumb 5.28212 -21.5303
lclavicle -1.23445e-013 -6.36111e-015
lhumerus -33.7659 -9.56156 83.0192
lradius 27.0605
lwrist 5.3883
lhand -27.8172 -1064.82
lfingers 7.12502
lthumb -1.20937 45.1535
rfemur -24.1731 -7.48379 28.0041
rtibia 33.0115
rfoot -9.38069 -13.0537
rtoes 5.57902
lfemur -6.49607 6.12969 0.728931
ltibia 34.0803
lfoot -1.597 34.0646
ltoes 36.7077
2202
root -21.2324 15.5846 6.23636 -168.286 31.7779 -174.334
lowerback 0.809543 2.13382 -1.45085
upperback 0.246636 2.84597 1.18817
thorax -0.331688 1.42854 1.99516
lowerneck -18.8333 -1.38042 0.639005
upperneck 37.7206 -1.74546 5.63541
head 16.9506 1.13626 2.35816
rclavicle 2.63887e-014 5.1684e-015
rhumerus -41.9746 -19.3728 -77.1747
rradius 30.7557
rwrist 2.70551
rhand -21.4359 8.33867
rfingers 7.12502
rthumb 4.95344 -21.5834
lclavicle 2.63887e-014 5.1684e-015
lhumerus -33.4463 -9.12609 83.0607
lradius 26.7201
lwrist 5.0294
lhand -27.6515 -1064.79
lfingers 7.12502
lthumb -1.04929 45.1915
rfemur -23.8374 -7.27947 28.2337
rtibia 32.9904
rfoot -9.58928 -12.798
rtoes 5.68907
lfemur -7.05621 5.74824 0.786135
ltibia 35.6654
lfoot 0.701643 31.3022
ltoes 33.8494
2203
root -21.1525 15.5817 6.22776 -168.353 32.3732 -174.302
lowerback 0.874851 2.18831 -1.38329
upperback 0.3477 2.91869 1.15925
thorax -0.263192 1.4636 1.92656
lowerneck -18.8283 -1.41644 0.596639
upperneck 37.7113 -1.83813 5.74221
head 16.9516 1.10399 2.39455
rclavicle -2.59414e-014 -1.15295e-014
rhumerus -41.4057 -18.6311 -77.9707
rradius 31.6489
rwrist 2.17921
rhand -21.7246 8.27473
rfingers 7.12502
rthumb 4.6747 -21.6537
lclavicle -2.59414e-014 -1.15295e-014
lhumerus -33.0973 -8.64608 83.1391
lradius 26.3981
lwrist 4.58636
lhand -27.4485 -1064.91
lfingers 7.12502
lthumb -0.853249 45.0682
rfemur -23.5201 -7.07001 28.44
rtibia 32.9999
rfoot -9.80461 -12.5596
rtoes 5.79923
lfemur -7.67886 5.30579 0.78546
ltibia 37.2856
lfoot 2.48659 28.0549
ltoes 30.0656
2204
root -21.0754 15.5778 6.21813 -168.424 32.9535 -174.28
lowerback 0.919689 2.24195 -1.3204
upperback 0.460054 2.99085 1.14007
thorax -0.172166 1.49837 1.87174
lowerneck -18.8273 -1.45589 0.537619
upperneck 37.6996 -1.93059 5.84936
head 16.9527 1.06909 2.434
rclavicle -4.5969e-014 4.77083e-015
rhumerus -40.8407 -17.8715 -78.6989
rradius 32.5108
rwrist 1.82667
rhand -21.9342 8.20468
rfingers 7.12502
rthumb 4.47232 -21.7281
lclavicle -4.5969e-014 4.77083e-015
lhumerus -32.7239 -8.12354 83.2613
lradius 26.1053
lwrist 4.08936
lhand -27.23 -1065.17
lfingers 7.12502
lthumb -0.642269 44.8136
rfemur -23.2189 -6.86639 28.6239
rtibia 33.0398
rfoot -10.0276 -12.3348
rtoes 5.9194
lfemur -8.3609 4.8059 0.724369
ltibia 38.9216
lfoot 3.55012 24.5448
ltoes 25.6652
2205
root -21.001 15.5726 6.20799 -168.484 33.5272 -174.251
lowerback 0.953767 2.29828 -1.25031
upperback 0.575774 3.06716 1.13221
thorax -0.071878 1.53541 1.82511
lowerneck -18.824 -1.49687 0.467698
upperneck 37.6868 -2.02134 5.95832
head 16.9529 1.03355 2.47647
rclavicle -9.08446e-014 -1.55052e-014
rhumerus -40.2872 -17.0931 -79.3641
rradius 33.3395
rwrist 1.58836
rhand -22.0569 8.15353
rfingers 7.12502
rthumb 4.35384 -21.7817
lclavicle -9.08446e-014 -1.55052e-014
lhumerus -32.3331 -7.56924 83.4249
lradius 25.845
lwrist 3.5713
lhand -27.009 -1065.51
lfingers 7.12502
lthumb -0.42875 44.4674
rfemur -22.9434 -6.65257 28.8043
rtibia 33.1087
rfoot -10.2419 -12.1362
rtoes 5.98451
lfemur -9.1043 4.27153 0.617924
ltibia 40.5593
lfoot 3.88591 21.027
ltoes 20.9669
2206
root -20.9291 15.5665 6.19687 -168.544 34.0868 -174.227
lowerback 0.973014 2.35699 -1.18565
upperback 0.696589 3.14706 1.13644
thorax 0.0410238 1.57437 1.79477
lowerneck -18.8242 -1.54515 0.383054
upperneck 37.6806 -2.11512 6.06297
head 16.9579 0.994427 2.5196
rclavicle -4.56708e-014 -3.97569e-015
rhumerus -39.7559 -16.3009 -79.9618
rradius 34.1435
rwrist 1.38631
rhand -22.102 8.15473
rfingers 7.12502
rthumb 4.31024 -21.7814
lclavicle -4.56708e-014 -3.97569e-015
lhumerus -31.9293 -6.99284 83.6409
lradius 25.625
lwrist 3.05441
lhand -26.804 -1065.9
lfingers 7.12502
lthumb -0.23083 44.079
rfemur -22.6847 -6.44083 28.9707
rtibia 33.2042
rfoot -10.4605 -11.9583
rtoes 6.05442
lfemur -9.89987 3.71144 0.456776
ltibia 42.1827
lfoot 3.63635 17.6958
ltoes 16.4205
2207
root -20.8593 15.5593 6.1848 -168.605 34.633 -174.211
lowerback 0.987442 2.42085 -1.12471
upperback 0.816623 3.23405 1.14733
thorax 0.155132 1.61709 1.77358
lowerneck -18.8214 -1.60156 0.28657
upperneck 37.6794 -2.21594 6.1704
head 16.9657 0.951831 2.56524
rclavicle -4.76586e-014 1.19271e-015
rhumerus -39.2621 -15.5073 -80.4982
rradius 34.9469
rwrist 1.13539
rhand -22.0707 8.17618
rfingers 7.12502
rthumb 4.34047 -21.7593
lclavicle -4.76586e-014 1.19271e-015
lhumerus -31.5214 -6.41774 83.9076
lradius 25.4534
lwrist 2.56152
lhand -26.6305 -1066.27
lfingers 7.12502
lthumb -0.063179 43.7066
rfemur -22.4393 -6.22803 29.1216
rtibia 33.3215
rfoot -10.675 -11.8046
rtoes 6.08719
lfemur -10.7407 3.14495 0.24135
ltibia 43.781
lfoot 2.96748 14.6738
ltoes 12.2786
2208
root -20.7916 15.5513 6.17184 -168.664 35.1633 -174.197
lowerback 1.00568 2.49041 -1.05903
upperback 0.928284 3.32875 1.16214
thorax 0.258433 1.66398 1.75341
lowerneck -18.8143 -1.66716 0.180472
upperneck 37.6893 -2.3248 6.28003
head 16.9793 0.906151 2.61302
rclavicle 7.65818e-014 3.97569e-016
rhumerus -38.8226 -14.7191 -80.9783
rradius 35.7687
rwrist 0.763048
rhand -21.9677 8.22849
rfingers 7.12502
rthumb 4.43993 -21.705
lclavicle 7.65818e-014 3.97569e-016
lhumerus -31.1237 -5.85668 84.222
lradius 25.3421
lwrist 2.10794
lhand -26.4782 -1066.61
lfingers 7.12502
lthumb 0.083929 43.374
rfemur -22.2063 -6.01478 29.262
rtibia 33.4555
rfoot -10.8857 -11.6774
rtoes 6.07816
lfemur -11.6227 2.58039 -0.0218312
ltibia 45.3445
lfoot 2.08135 12.0425
ltoes 8.68373
2209
root -20.7258 15.5428 6.15801 -168.719 35.6765 -174.184
lowerback 1.0302 2.56557 -0.985205
upperback 1.02983 3.43099 1.17867
thorax 0.348116 1.71497 1.72991
lowerneck -18.8025 -1.74058 0.0707835
upperneck 37.7088 -2.44063 6.38798
head 16.9977 0.858036 2.66023
rclavicle -3.10104e-014 1.78906e-015
rhumerus -38.44 -13.9424 -81.4096
rradius 36.6169
rwrist 0.242496
rhand -21.8431 8.30452
rfingers 7.12502
rthumb 4.5603 -21.6264
lclavicle -3.10104e-014 1.78906e-015
lhumerus -30.74 -5.31101 84.5787
lradius 25.2983
lwrist 1.69957
lhand -26.3427 -1066.88
lfingers 7.12502
lthumb 0.214711 43.0991
rfemur -21.9821 -5.79708 29.3929
rtibia 33.5985
rfoot -11.0922 -11.5762
rtoes 6.04236
lfemur -12.5439 2.02782 -0.3294
ltibia 46.8666
lfoot 1.09809 9.84315
ltoes 5.62833
2210
root -20.662 15.5343 6.14332 -168.772 36.1725 -174.181
lowerback 1.05923 2.64586 -0.907709
upperback 1.12291 3.54009 1.19655
thorax 0.426706 1.76967 1.70531
lowerneck -18.7886 -1.82 -0.0481508
upperneck 37.7346 -2.56062 6.49742
head 17.0197 0.80792 2.70964
rclavicle 1.61513e-014 8.74653e-015
rhumerus -38.116 -13.1792 -81.7946
rradius 37.508
rwrist -0.401982
rhand -21.7346 8.36357
rfingers 7.12502
rthumb 4.66504 -21.5651
lclavicle 1.61513e-014 8.74653e-015
lhumerus -30.3706 -4.782 84.977
lradius 25.3297
lwrist 1.34985
lhand -26.2105 -1067.09
lfingers 7.12502
lthumb 0.342467 42.8898
rfemur -21.7643 -5.57964 29.5089
rtibia 33.7421
rfoot -11.2926 -11.4938
rtoes 5.98654
lfemur -13.5029 1.49772 -0.682895
ltibia 48.3417
lfoot 0.135853 8.07868
ltoes 3.07421
2211
root -20.6 15.526 6.12774 -168.817 36.6509 -174.176
lowerback 1.10351 2.73106 -0.808923
upperback 1.19965 3.65572 1.21024
thorax 0.481626 1.82809 1.6633
lowerneck -18.7672 -1.90291 -0.164718
upperneck 37.7668 -2.6837 6.60623
head 17.0439 0.757838 2.75843
rclavicle -2.99171e-014 -1.39149e-015
rhumerus -37.8556 -12.4426 -82.1408
rradius 38.4279
rwrist -1.11852
rhand -21.6686 8.40162
rfingers 7.12502
rthumb 4.72875 -21.5256
lclavicle -2.99171e-014 -1.39149e-015
lhumerus -30.0305 -4.28496 85.4119
lradius 25.4464
lwrist 1.08818
lhand -26.0727 -1067.26
lfingers 7.12502
lthumb 0.475514 42.7236
rfemur -21.5489 -5.35651 29.617
rtibia 33.8783
rfoot -11.4934 -11.4261
rtoes 5.98357
lfemur -14.4966 0.98705 -1.07104
ltibia 49.7626
lfoot -0.7518 6.75646
ltoes 1.01323
2212
root -20.5397 15.5183 6.1112 -168.855 37.1113 -174.173
lowerback 1.14662 2.81537 -0.69717
upperback 1.27161 3.77033 1.22332
thorax 0.533535 1.88625 1.61343
lowerneck -18.7438 -1.98085 -0.270512
upperneck 37.7986 -2.79765 6.70189
head 17.0668 0.711177 2.8011
rclavicle 1.66979e-014 2.20651e-014
rhumerus -37.6318 -11.7329 -82.4517
rradius 39.3571
rwrist -1.84784
rhand -21.6495 8.41348
rfingers 7.12502
rthumb 4.7472 -21.5133
lclavicle 1.66979e-014 2.20651e-014
lhumerus -29.7145 -3.83394 85.8853
lradius 25.6585
lwrist 0.953705
lhand -25.9341 -1067.39
lfingers 7.12502
lthumb 0.609364 42.5924
rfemur -21.3334 -5.13925 29.7173
rtibia 34.0002
rfoot -11.6856 -11.3693
rtoes 5.98039
lfemur -15.5198 0.497143 -1.49341
ltibia 51.121
lfoot -1.56716 5.86476
ltoes -0.654582
2213
root -20.4809 15.5114 6.09354 -168.887 37.556 -174.173
lowerback 1.18812 2.89823 -0.570516
upperback 1.33827 3.88313 1.23423
thorax 0.582508 1.94376 1.55305
lowerneck -18.7284 -2.05292 -0.383615
upperneck 37.8393 -2.90053 6.8022
head 17.0965 0.669291 2.85028
rclavicle -8.33156e-014 1.31198e-014
rhumerus -37.4378 -11.0567 -82.7273
rradius 40.2818
rwrist -2.5484
rhand -21.6829 8.39986
rfingers 7.12502
rthumb 4.71494 -21.5277
lclavicle -8.33156e-014 1.31198e-014
lhumerus -29.4229 -3.44208 86.398
lradius 25.9632
lwrist 0.958822
lhand -25.7865 -1067.52
lfingers 7.12502
lthumb 0.751904 42.4633
rfemur -21.116 -4.92955 29.8079
rtibia 34.1026
rfoot -11.8701 -11.3171
rtoes 5.99022
lfemur -16.5676 0.0300015 -1.94888
ltibia 52.4067
lfoot -2.30308 5.38739
ltoes -1.89935
